<svg width="243" height="243" viewBox="0 0 243 243" fill="none" xmlns="http://www.w3.org/2000/svg">
<path d="M158.519 11.3025L160.116 20.7211H128.269V243H113.015V20.7211H81L84.832 13.1862L158.519 11.3025Z" fill="white"/>
<path d="M105.488 17.8955V225.105H98.895V23.5467L62.3369 150.698H57.4538L23.5468 76.2909L16.9538 99.8374L11.3026 156.349H7.53516L14.302 68.756L26.8353 65.9304L59.5753 139.112L93.0826 17.8955H105.488Z" fill="white"/>
<path fill-rule="evenodd" clip-rule="evenodd" d="M107.372 16.0117V226.988H97.0119V36.9154L63.756 152.581H56.2428L23.9713 81.7635L18.8125 100.188L13.008 158.233H5.50098L12.5317 67.2242L27.9258 63.7536L59.1561 133.561L91.6496 16.0117H107.372ZM59.5759 139.112L26.836 65.9303L14.3027 68.7559L7.53583 156.349H11.3033L16.9544 99.8373L23.5475 76.2908L57.4544 150.698H62.3376L98.8956 23.5466V225.105H105.489V17.8954H93.0833L59.5759 139.112Z" fill="white"/>
<path fill-rule="evenodd" clip-rule="evenodd" d="M135.628 223.199C185.642 216.315 224.163 173.406 224.163 121.5C224.163 64.8009 178.199 18.8372 121.5 18.8372C64.8009 18.8372 18.8372 64.8009 18.8372 121.5C18.8372 173.406 57.3582 216.315 107.372 223.199V242.187C46.9254 235.188 0 183.824 0 121.5C0 54.3974 54.3974 0 121.5 0C188.603 0 243 54.3974 243 121.5C243 183.824 196.075 235.188 135.628 242.187V223.199Z" fill="white"/>
<path d="M225.105 68.7559L150.698 224.163H135.628V16.9536H147.872L150.698 196.849L209.915 68.7559H225.105Z" fill="white"/>
</svg>
